<svg width="671" height="101" viewBox="0 0 671 101" fill="none" xmlns="http://www.w3.org/2000/svg">
<g clip-path="url(#clip0_447_17103)">
<path d="M121.83 84.8502V23.7102H131.87V84.8502H121.83ZM128.73 58.9102V50.6102H144.19C147.27 50.6102 149.68 49.8102 151.4 48.2102C153.12 46.6102 153.98 44.3802 153.98 41.5302C153.98 38.9702 153.14 36.8102 151.45 35.0702C149.76 33.3202 147.37 32.4502 144.29 32.4502H128.74V23.7202H144.72C148.56 23.7202 151.94 24.4902 154.85 26.0302C157.76 27.5702 160.02 29.6702 161.62 32.3202C163.22 34.9702 164.02 37.9802 164.02 41.3602C164.02 44.9102 163.22 48.0002 161.62 50.6202C160.02 53.2402 157.76 55.2802 154.85 56.7302C151.94 58.1902 148.56 58.9102 144.72 58.9102H128.74H128.73ZM155.37 84.8502L133.97 58.3002L143.32 54.8902L168.04 84.8502H155.37Z" fill="#333333"/>
<path d="M176.34 84.8502V23.7102H186.38V84.8502H176.34ZM183.24 32.8802V23.7102H217.04V32.8802H183.24ZM183.24 58.0402V49.2202H214.51V58.0402H183.24ZM183.24 84.8502V75.6802H217.48V84.8502H183.24Z" fill="#333333"/>
<path d="M255.3 85.7301C250.87 85.7301 246.78 84.9301 243.03 83.3301C239.27 81.7301 236 79.4901 233.2 76.6001C230.4 73.7101 228.25 70.3701 226.74 66.5601C225.22 62.7501 224.47 58.6601 224.47 54.2901C224.47 49.9201 225.23 45.8301 226.74 42.0201C228.25 38.2101 230.41 34.8701 233.2 32.0201C235.99 29.1701 239.27 26.9301 243.03 25.3001C246.79 23.6701 250.88 22.8501 255.3 22.8501C260.25 22.8501 264.53 23.6701 268.14 25.3001C271.75 26.9301 274.95 29.1401 277.75 31.9401L270.94 38.7501C269.13 36.7701 266.94 35.2301 264.35 34.1201C261.76 33.0101 258.74 32.4601 255.31 32.4601C252.28 32.4601 249.52 32.9801 247.01 34.0301C244.51 35.0801 242.34 36.5801 240.5 38.5301C238.67 40.4801 237.25 42.8001 236.26 45.4701C235.27 48.1501 234.77 51.0901 234.77 54.2901C234.77 57.4901 235.26 60.4301 236.26 63.1101C237.25 65.7901 238.66 68.1001 240.5 70.0501C242.33 72.0001 244.5 73.5001 247.01 74.5501C249.51 75.6001 252.28 76.1201 255.31 76.1201C259.04 76.1201 262.19 75.5501 264.79 74.4201C267.38 73.2901 269.58 71.7301 271.38 69.7501L278.19 76.5601C275.39 79.4101 272.1 81.6601 268.32 83.2801C264.53 84.9101 260.2 85.7301 255.31 85.7301H255.3Z" fill="#333333"/>
<path d="M288.05 84.8502V23.7102H298.09V84.8502H288.05ZM294.95 58.9102V50.6102H310.41C313.49 50.6102 315.9 49.8102 317.62 48.2102C319.34 46.6102 320.2 44.3802 320.2 41.5302C320.2 38.9702 319.36 36.8102 317.67 35.0702C315.98 33.3202 313.59 32.4502 310.51 32.4502H294.96V23.7202H310.94C314.78 23.7202 318.16 24.4902 321.07 26.0302C323.98 27.5702 326.24 29.6702 327.84 32.3202C329.44 34.9702 330.24 37.9802 330.24 41.3602C330.24 44.9102 329.44 48.0002 327.84 50.6202C326.24 53.2402 323.98 55.2802 321.07 56.7302C318.16 58.1902 314.78 58.9102 310.94 58.9102H294.96H294.95ZM321.59 84.8502L300.19 58.3002L309.54 54.8902L334.26 84.8502H321.59Z" fill="#333333"/>
<path d="M365.96 85.7302C361.36 85.7302 357.23 84.6802 353.56 82.5902C349.89 80.5002 346.99 77.6302 344.87 73.9902C342.74 70.3502 341.68 66.2302 341.68 61.6302V23.7102H351.72V61.5302C351.72 64.5002 352.34 67.0802 353.6 69.2602C354.85 71.4402 356.55 73.1302 358.71 74.3302C360.86 75.5202 363.28 76.1202 365.96 76.1202C368.64 76.1202 371.11 75.5202 373.21 74.3302C375.31 73.1402 376.97 71.4502 378.19 69.2602C379.41 67.0802 380.02 64.5302 380.02 61.6202V23.7102H390.06V61.7002C390.06 66.3002 389.01 70.4102 386.92 74.0202C384.82 77.6302 381.97 80.4802 378.36 82.5802C374.75 84.6802 370.61 85.7202 365.96 85.7202V85.7302Z" fill="#333333"/>
<path d="M403.52 84.8502V23.7102H413.56V84.8502H403.52Z" fill="#333333"/>
<path d="M423.17 32.8802V23.7102H473.04V32.8802H423.17ZM443.09 84.8502V25.4602H453.13V84.8502H443.09Z" fill="#333333"/>
<path d="M516.63 85.7301C511.8 85.7301 507.69 84.8601 504.31 83.1101C500.93 81.3601 497.9 78.8001 495.23 75.4201L502.04 68.6101C503.73 71.0601 505.74 72.9601 508.07 74.3301C510.4 75.7001 513.37 76.3801 516.98 76.3801C520.36 76.3801 523.05 75.6801 525.06 74.2801C527.07 72.8801 528.07 70.9601 528.07 68.5201C528.07 66.4801 527.55 64.8201 526.5 63.5401C525.45 62.2601 524.07 61.2001 522.35 60.3501C520.63 59.5101 518.74 58.7501 516.67 58.0801C514.6 57.4101 512.54 56.6501 510.47 55.8101C508.4 54.9701 506.51 53.9001 504.79 52.6201C503.07 51.3401 501.69 49.6801 500.64 47.6401C499.59 45.6001 499.07 43.0101 499.07 39.8701C499.07 36.2601 499.96 33.1901 501.73 30.6601C503.51 28.1301 505.91 26.1901 508.94 24.8501C511.97 23.5101 515.34 22.8401 519.07 22.8401C523.09 22.8401 526.68 23.6301 529.86 25.2001C533.03 26.7701 535.61 28.7801 537.59 31.2301L530.78 38.0401C529.03 36.0601 527.21 34.5901 525.32 33.6301C523.43 32.6701 521.26 32.1901 518.81 32.1901C515.78 32.1901 513.41 32.8001 511.69 34.0201C509.97 35.2401 509.11 36.9601 509.11 39.1701C509.11 41.0401 509.63 42.5301 510.68 43.6701C511.73 44.8101 513.11 45.7701 514.83 46.5501C516.55 47.3401 518.44 48.0801 520.51 48.7801C522.58 49.4801 524.64 50.2701 526.71 51.1401C528.78 52.0101 530.67 53.1401 532.39 54.5001C534.11 55.8701 535.49 57.6301 536.54 59.7801C537.59 61.9401 538.11 64.6401 538.11 67.9001C538.11 73.3701 536.17 77.7101 532.3 80.9101C528.43 84.1101 523.2 85.7101 516.62 85.7101L516.63 85.7301Z" fill="#333333"/>
<path d="M549.04 84.8502V23.7102H559.08V84.8502H549.04Z" fill="#333333"/>
<path d="M568.69 32.8802V23.7102H618.56V32.8802H568.69ZM588.6 84.8502V25.4602H598.64V84.8502H588.6Z" fill="#333333"/>
<path d="M628.17 84.8502V23.7102H638.21V84.8502H628.17ZM635.07 32.8802V23.7102H668.87V32.8802H635.07ZM635.07 58.0402V49.2202H666.34V58.0402H635.07ZM635.07 84.8502V75.6802H669.31V84.8502H635.07Z" fill="#333333"/>
<path d="M121.83 84.8502V23.7102H131.87V84.8502H121.83ZM128.73 58.9102V50.6102H144.19C147.27 50.6102 149.68 49.8102 151.4 48.2102C153.12 46.6102 153.98 44.3802 153.98 41.5302C153.98 38.9702 153.14 36.8102 151.45 35.0702C149.76 33.3202 147.37 32.4502 144.29 32.4502H128.74V23.7202H144.72C148.56 23.7202 151.94 24.4902 154.85 26.0302C157.76 27.5702 160.02 29.6702 161.62 32.3202C163.22 34.9702 164.02 37.9802 164.02 41.3602C164.02 44.9102 163.22 48.0002 161.62 50.6202C160.02 53.2402 157.76 55.2802 154.85 56.7302C151.94 58.1902 148.56 58.9102 144.72 58.9102H128.74H128.73ZM155.37 84.8502L133.97 58.3002L143.32 54.8902L168.04 84.8502H155.37Z" stroke="#333333" stroke-width="1.5" stroke-linejoin="round"/>
<path d="M176.34 84.8502V23.7102H186.38V84.8502H176.34ZM183.24 32.8802V23.7102H217.04V32.8802H183.24ZM183.24 58.0402V49.2202H214.51V58.0402H183.24ZM183.24 84.8502V75.6802H217.48V84.8502H183.24Z" stroke="#333333" stroke-width="1.5" stroke-linejoin="round"/>
<path d="M255.3 85.7301C250.87 85.7301 246.78 84.9301 243.03 83.3301C239.27 81.7301 236 79.4901 233.2 76.6001C230.4 73.7101 228.25 70.3701 226.74 66.5601C225.22 62.7501 224.47 58.6601 224.47 54.2901C224.47 49.9201 225.23 45.8301 226.74 42.0201C228.25 38.2101 230.41 34.8701 233.2 32.0201C235.99 29.1701 239.27 26.9301 243.03 25.3001C246.79 23.6701 250.88 22.8501 255.3 22.8501C260.25 22.8501 264.53 23.6701 268.14 25.3001C271.75 26.9301 274.95 29.1401 277.75 31.9401L270.94 38.7501C269.13 36.7701 266.94 35.2301 264.35 34.1201C261.76 33.0101 258.74 32.4601 255.31 32.4601C252.28 32.4601 249.52 32.9801 247.01 34.0301C244.51 35.0801 242.34 36.5801 240.5 38.5301C238.67 40.4801 237.25 42.8001 236.26 45.4701C235.27 48.1501 234.77 51.0901 234.77 54.2901C234.77 57.4901 235.26 60.4301 236.26 63.1101C237.25 65.7901 238.66 68.1001 240.5 70.0501C242.33 72.0001 244.5 73.5001 247.01 74.5501C249.51 75.6001 252.28 76.1201 255.31 76.1201C259.04 76.1201 262.19 75.5501 264.79 74.4201C267.38 73.2901 269.58 71.7301 271.38 69.7501L278.19 76.5601C275.39 79.4101 272.1 81.6601 268.32 83.2801C264.53 84.9101 260.2 85.7301 255.31 85.7301H255.3Z" stroke="#333333" stroke-width="1.5" stroke-linejoin="round"/>
<path d="M288.05 84.8502V23.7102H298.09V84.8502H288.05ZM294.95 58.9102V50.6102H310.41C313.49 50.6102 315.9 49.8102 317.62 48.2102C319.34 46.6102 320.2 44.3802 320.2 41.5302C320.2 38.9702 319.36 36.8102 317.67 35.0702C315.98 33.3202 313.59 32.4502 310.51 32.4502H294.96V23.7202H310.94C314.78 23.7202 318.16 24.4902 321.07 26.0302C323.98 27.5702 326.24 29.6702 327.84 32.3202C329.44 34.9702 330.24 37.9802 330.24 41.3602C330.24 44.9102 329.44 48.0002 327.84 50.6202C326.24 53.2402 323.98 55.2802 321.07 56.7302C318.16 58.1902 314.78 58.9102 310.94 58.9102H294.96H294.95ZM321.59 84.8502L300.19 58.3002L309.54 54.8902L334.26 84.8502H321.59Z" stroke="#333333" stroke-width="1.5" stroke-linejoin="round"/>
<path d="M365.96 85.7302C361.36 85.7302 357.23 84.6802 353.56 82.5902C349.89 80.5002 346.99 77.6302 344.87 73.9902C342.74 70.3502 341.68 66.2302 341.68 61.6302V23.7102H351.72V61.5302C351.72 64.5002 352.34 67.0802 353.6 69.2602C354.85 71.4402 356.55 73.1302 358.71 74.3302C360.86 75.5202 363.28 76.1202 365.96 76.1202C368.64 76.1202 371.11 75.5202 373.21 74.3302C375.31 73.1402 376.97 71.4502 378.19 69.2602C379.41 67.0802 380.02 64.5302 380.02 61.6202V23.7102H390.06V61.7002C390.06 66.3002 389.01 70.4102 386.92 74.0202C384.82 77.6302 381.97 80.4802 378.36 82.5802C374.75 84.6802 370.61 85.7202 365.96 85.7202V85.7302Z" stroke="#333333" stroke-width="1.5" stroke-linejoin="round"/>
<path d="M403.52 84.8502V23.7102H413.56V84.8502H403.52Z" stroke="#333333" stroke-width="1.5" stroke-linejoin="round"/>
<path d="M423.17 32.8802V23.7102H473.04V32.8802H423.17ZM443.09 84.8502V25.4602H453.13V84.8502H443.09Z" stroke="#333333" stroke-width="1.5" stroke-linejoin="round"/>
<path d="M516.63 85.7301C511.8 85.7301 507.69 84.8601 504.31 83.1101C500.93 81.3601 497.9 78.8001 495.23 75.4201L502.04 68.6101C503.73 71.0601 505.74 72.9601 508.07 74.3301C510.4 75.7001 513.37 76.3801 516.98 76.3801C520.36 76.3801 523.05 75.6801 525.06 74.2801C527.07 72.8801 528.07 70.9601 528.07 68.5201C528.07 66.4801 527.55 64.8201 526.5 63.5401C525.45 62.2601 524.07 61.2001 522.35 60.3501C520.63 59.5101 518.74 58.7501 516.67 58.0801C514.6 57.4101 512.54 56.6501 510.47 55.8101C508.4 54.9701 506.51 53.9001 504.79 52.6201C503.07 51.3401 501.69 49.6801 500.64 47.6401C499.59 45.6001 499.07 43.0101 499.07 39.8701C499.07 36.2601 499.96 33.1901 501.73 30.6601C503.51 28.1301 505.91 26.1901 508.94 24.8501C511.97 23.5101 515.34 22.8401 519.07 22.8401C523.09 22.8401 526.68 23.6301 529.86 25.2001C533.03 26.7701 535.61 28.7801 537.59 31.2301L530.78 38.0401C529.03 36.0601 527.21 34.5901 525.32 33.6301C523.43 32.6701 521.26 32.1901 518.81 32.1901C515.78 32.1901 513.41 32.8001 511.69 34.0201C509.97 35.2401 509.11 36.9601 509.11 39.1701C509.11 41.0401 509.63 42.5301 510.68 43.6701C511.73 44.8101 513.11 45.7701 514.83 46.5501C516.55 47.3401 518.44 48.0801 520.51 48.7801C522.58 49.4801 524.64 50.2701 526.71 51.1401C528.78 52.0101 530.67 53.1401 532.39 54.5001C534.11 55.8701 535.49 57.6301 536.54 59.7801C537.59 61.9401 538.11 64.6401 538.11 67.9001C538.11 73.3701 536.17 77.7101 532.3 80.9101C528.43 84.1101 523.2 85.7101 516.62 85.7101L516.63 85.7301Z" stroke="#333333" stroke-width="1.5" stroke-linejoin="round"/>
<path d="M549.04 84.8502V23.7102H559.08V84.8502H549.04Z" stroke="#333333" stroke-width="1.5" stroke-linejoin="round"/>
<path d="M568.69 32.8802V23.7102H618.56V32.8802H568.69ZM588.6 84.8502V25.4602H598.64V84.8502H588.6Z" stroke="#333333" stroke-width="1.5" stroke-linejoin="round"/>
<path d="M628.17 84.8502V23.7102H638.21V84.8502H628.17ZM635.07 32.8802V23.7102H668.87V32.8802H635.07ZM635.07 58.0402V49.2202H666.34V58.0402H635.07ZM635.07 84.8502V75.6802H669.31V84.8502H635.07Z" stroke="#333333" stroke-width="1.5" stroke-linejoin="round"/>
<path d="M25.31 79.05L10.27 68.15C2.64999 62.63 -0.920009 54.68 0.199991 45.75C1.32999 36.83 7.01999 28 16.23 20.91L43.36 0L65.18 15.81L38.05 36.72C35.89 38.39 34.55 40.46 34.28 42.55C34.02 44.64 34.86 46.51 36.64 47.81L51.69 58.72L25.3 79.05H25.31Z" fill="#1B52B0"/>
<path d="M75.08 21.23L90.12 32.13C97.73 37.65 101.31 45.6 100.18 54.52C99.05 63.44 93.36 72.27 84.15 79.36L57.03 100.27L35.21 84.46L62.34 63.55C64.5 61.88 65.84 59.81 66.11 57.72C66.37 55.63 65.53 53.76 63.75 52.46L48.7 41.55L75.09 21.22L75.08 21.23Z" fill="#EE9527"/>
</g>
<defs>
<clipPath id="clip0_447_17103">
<rect width="670.06" height="100.28" fill="white"/>
</clipPath>
</defs>
</svg>
